<svg width="42" height="42" viewBox="0 0 42 42" fill="none" xmlns="http://www.w3.org/2000/svg">
<path d="M25.2 8C25.2 6.41775 25.6927 4.87103 26.6157 3.55544C27.5387 2.23984 28.8506 1.21446 30.3855 0.608963C31.9204 0.0034624 33.6093 -0.154964 35.2388 0.153718C36.8682 0.4624 38.3649 1.22433 39.5397 2.34315C40.7145 3.46197 41.5145 4.88743 41.8386 6.43928C42.1627 7.99113 41.9964 9.59966 41.3606 11.0615C40.7248 12.5233 39.6482 13.7727 38.2668 14.6518C36.8854 15.5308 35.2614 16 33.6 16L33.6 14C34.846 14 36.0641 13.6481 37.1001 12.9888C38.1361 12.3295 38.9436 11.3925 39.4205 10.2961C39.8973 9.19975 40.022 7.99335 39.779 6.82946C39.5359 5.66557 38.9359 4.59648 38.0548 3.75736C37.1737 2.91824 36.0512 2.3468 34.8291 2.11529C33.607 1.88378 32.3403 2.0026 31.1891 2.45672C30.0379 2.91085 29.054 3.67988 28.3618 4.66658C27.6695 5.65327 27.3 6.81331 27.3 8H25.2Z" fill="white"/>
<path d="M25.2 35C25.2 36.3845 25.6311 37.7378 26.4387 38.889C27.2463 40.0401 28.3943 40.9373 29.7373 41.4672C31.0803 41.997 32.5582 42.1356 33.9839 41.8655C35.4097 41.5954 36.7193 40.9287 37.7472 39.9497C38.7752 38.9708 39.4752 37.7235 39.7588 36.3656C40.0424 35.0078 39.8968 33.6003 39.3405 32.3212C38.7842 31.0421 37.8422 29.9489 36.6335 29.1797C35.4247 28.4105 34.0037 28 32.55 28L32.55 29.995C33.5894 29.995 34.6054 30.2885 35.4697 30.8385C36.3339 31.3885 37.0075 32.1701 37.4052 33.0847C37.803 33.9992 37.9071 35.0056 37.7043 35.9764C37.5015 36.9473 37.001 37.8391 36.266 38.5391C35.5311 39.239 34.5947 39.7157 33.5753 39.9088C32.5558 40.1019 31.4992 40.0028 30.5389 39.624C29.5786 39.2452 28.7579 38.6037 28.1804 37.7806C27.603 36.9576 27.2948 35.9899 27.2948 35H25.2Z" fill="white"/>
<line x1="7.35001" y1="29" x2="32.55" y2="29" stroke="white" stroke-width="2"/>
<line y1="15" x2="33.6" y2="15" stroke="white" stroke-width="2"/>
<line x1="7.35001" y1="22" x2="38.85" y2="22" stroke="white" stroke-width="2"/>
</svg>
